solid Rubber-01
   facet normal 1.716464e-002 0.000000e+000 9.998527e-001
      outer loop
         vertex 2.628697e+000 2.000000e+000 4.996686e+000
         vertex 2.500000e+000 2.000000e+000 5.000000e+000
         vertex 2.500000e+000 0.000000e+000 5.000000e+000
      endloop
   endfacet
   facet normal -1.716464e-002 0.000000e+000 9.998527e-001
      outer loop
         vertex 2.500000e+000 0.000000e+000 5.000000e+000
         vertex 2.500000e+000 2.000000e+000 5.000000e+000
         vertex 2.371303e+000 0.000000e+000 4.996686e+000
      endloop
   endfacet
   facet normal -3.432928e-002 0.000000e+000 9.994106e-001
      outer loop
         vertex 2.500000e+000 2.000000e+000 5.000000e+000
         vertex 2.371303e+000 2.000000e+000 4.996686e+000
         vertex 2.371303e+000 0.000000e+000 4.996686e+000
      endloop
   endfacet
   facet normal -8.571705e-002 0.000000e+000 9.963195e-001
      outer loop
         vertex 2.371303e+000 0.000000e+000 4.996686e+000
         vertex 2.371303e+000 2.000000e+000 4.996686e+000
         vertex 2.115273e+000 2.000000e+000 4.970220e+000
      endloop
   endfacet
   facet normal -1.198946e-001 0.000000e+000 9.927866e-001
      outer loop
         vertex 2.371303e+000 0.000000e+000 4.996686e+000
         vertex 2.115273e+000 2.000000e+000 4.970220e+000
         vertex 2.115273e+000 0.000000e+000 4.970220e+000
      endloop
   endfacet
   facet normal -1.877053e-001 0.000000e+000 9.822254e-001
      outer loop
         vertex 2.115273e+000 0.000000e+000 4.970220e+000
         vertex 2.115273e+000 2.000000e+000 4.970220e+000
         vertex 1.863322e+000 2.000000e+000 4.917570e+000
      endloop
   endfacet
   facet normal -2.213385e-001 0.000000e+000 9.751971e-001
      outer loop
         vertex 2.115273e+000 0.000000e+000 4.970220e+000
         vertex 1.863322e+000 2.000000e+000 4.917570e+000
         vertex 1.863322e+000 0.000000e+000 4.917570e+000
      endloop
   endfacet
   facet normal -2.877039e-001 0.000000e+000 9.577194e-001
      outer loop
         vertex 1.863322e+000 0.000000e+000 4.917570e+000
         vertex 1.863322e+000 2.000000e+000 4.917570e+000
         vertex 1.618120e+000 2.000000e+000 4.839292e+000
      endloop
   endfacet
   facet normal -3.204361e-001 0.000000e+000 9.472702e-001
      outer loop
         vertex 1.863322e+000 0.000000e+000 4.917570e+000
         vertex 1.618120e+000 2.000000e+000 4.839292e+000
         vertex 1.618120e+000 0.000000e+000 4.839292e+000
      endloop
   endfacet
   facet normal -3.846526e-001 0.000000e+000 9.230614e-001
      outer loop
         vertex 1.618120e+000 0.000000e+000 4.839292e+000
         vertex 1.618120e+000 2.000000e+000 4.839292e+000
         vertex 1.382265e+000 2.000000e+000 4.736217e+000
      endloop
   endfacet
   facet normal -4.161370e-001 0.000000e+000 9.093020e-001
      outer loop
         vertex 1.618120e+000 0.000000e+000 4.839292e+000
         vertex 1.382265e+000 2.000000e+000 4.736217e+000
         vertex 1.382265e+000 0.000000e+000 4.736217e+000
      endloop
   endfacet
   facet normal -4.775240e-001 0.000000e+000 8.786187e-001
      outer loop
         vertex 1.382265e+000 0.000000e+000 4.736217e+000
         vertex 1.382265e+000 2.000000e+000 4.736217e+000
         vertex 1.158260e+000 2.000000e+000 4.609438e+000
      endloop
   endfacet
   facet normal -5.074267e-001 0.000000e+000 8.616949e-001
      outer loop
         vertex 1.382265e+000 0.000000e+000 4.736217e+000
         vertex 1.158260e+000 2.000000e+000 4.609438e+000
         vertex 1.158260e+000 0.000000e+000 4.609438e+000
      endloop
   endfacet
   facet normal -5.653335e-001 0.000000e+000 8.248624e-001
      outer loop
         vertex 1.158260e+000 0.000000e+000 4.609438e+000
         vertex 1.158260e+000 2.000000e+000 4.609438e+000
         vertex 9.484763e-001 2.000000e+000 4.460299e+000
      endloop
   endfacet
   facet normal -5.933377e-001 0.000000e+000 8.049537e-001
      outer loop
         vertex 1.158260e+000 0.000000e+000 4.609438e+000
         vertex 9.484763e-001 2.000000e+000 4.460299e+000
         vertex 9.484763e-001 0.000000e+000 4.460299e+000
      endloop
   endfacet
   facet normal -6.471503e-001 0.000000e+000 7.623624e-001
      outer loop
         vertex 9.484763e-001 0.000000e+000 4.460299e+000
         vertex 9.484763e-001 2.000000e+000 4.460299e+000
         vertex 7.551395e-001 2.000000e+000 4.290380e+000
      endloop
   endfacet
   facet normal -6.729590e-001 0.000000e+000 7.396798e-001
      outer loop
         vertex 9.484763e-001 0.000000e+000 4.460299e+000
         vertex 7.551395e-001 2.000000e+000 4.290380e+000
         vertex 7.551395e-001 0.000000e+000 4.290380e+000
      endloop
   endfacet
   facet normal -7.221073e-001 0.000000e+000 6.917812e-001
      outer loop
         vertex 7.551395e-001 0.000000e+000 4.290380e+000
         vertex 7.551395e-001 2.000000e+000 4.290380e+000
         vertex 5.802988e-001 2.000000e+000 4.101483e+000
      endloop
   endfacet
   facet normal -7.454469e-001 0.000000e+000 6.665651e-001
      outer loop
         vertex 7.551395e-001 0.000000e+000 4.290380e+000
         vertex 5.802988e-001 2.000000e+000 4.101483e+000
         vertex 5.802988e-001 0.000000e+000 4.101483e+000
      endloop
   endfacet
   facet normal -7.894096e-001 0.000000e+000 6.138668e-001
      outer loop
         vertex 5.802988e-001 0.000000e+000 4.101483e+000
         vertex 5.802988e-001 2.000000e+000 4.101483e+000
         vertex 4.258074e-001 2.000000e+000 3.895609e+000
      endloop
   endfacet
   facet normal -8.100328e-001 0.000000e+000 5.863846e-001
      outer loop
         vertex 5.802988e-001 0.000000e+000 4.101483e+000
         vertex 4.258074e-001 2.000000e+000 3.895609e+000
         vertex 4.258074e-001 0.000000e+000 3.895609e+000
      endloop
   endfacet
   facet normal -8.483440e-001 0.000000e+000 5.294454e-001
      outer loop
         vertex 4.258074e-001 0.000000e+000 3.895609e+000
         vertex 4.258074e-001 2.000000e+000 3.895609e+000
         vertex 2.933030e-001 2.000000e+000 3.674942e+000
      endloop
   endfacet
   facet normal -8.660321e-001 0.000000e+000 4.999883e-001
      outer loop
         vertex 4.258074e-001 0.000000e+000 3.895609e+000
         vertex 2.933030e-001 2.000000e+000 3.674942e+000
         vertex 2.933030e-001 0.000000e+000 3.674942e+000
      endloop
   endfacet
   facet normal -8.982859e-001 0.000000e+000 4.394116e-001
      outer loop
         vertex 2.933030e-001 0.000000e+000 3.674942e+000
         vertex 2.933030e-001 2.000000e+000 3.674942e+000
         vertex 1.841900e-001 2.000000e+000 3.441820e+000
      endloop
   endfacet
   facet normal -9.128514e-001 0.000000e+000 4.082920e-001
      outer loop
         vertex 2.933030e-001 0.000000e+000 3.674942e+000
         vertex 1.841900e-001 2.000000e+000 3.441820e+000
         vertex 1.841900e-001 0.000000e+000 3.441820e+000
      endloop
   endfacet
   facet normal -9.387056e-001 0.000000e+000 3.447200e-001
      outer loop
         vertex 1.841900e-001 0.000000e+000 3.441820e+000
         vertex 1.841900e-001 2.000000e+000 3.441820e+000
         vertex 9.962521e-002 2.000000e+000 3.198714e+000
      endloop
   endfacet
   facet normal -9.499941e-001 0.000000e+000 3.122677e-001
      outer loop
         vertex 1.841900e-001 0.000000e+000 3.441820e+000
         vertex 9.962521e-002 2.000000e+000 3.198714e+000
         vertex 9.962521e-002 0.000000e+000 3.198714e+000
      endloop
   endfacet
   facet normal -9.691747e-001 0.000000e+000 2.463744e-001
      outer loop
         vertex 9.962521e-002 0.000000e+000 3.198714e+000
         vertex 9.962521e-002 2.000000e+000 3.198714e+000
         vertex 4.050508e-002 2.000000e+000 2.948202e+000
      endloop
   endfacet
   facet normal -9.770668e-001 0.000000e+000 2.129333e-001
      outer loop
         vertex 9.962521e-002 0.000000e+000 3.198714e+000
         vertex 4.050508e-002 2.000000e+000 2.948202e+000
         vertex 4.050508e-002 0.000000e+000 2.948202e+000
      endloop
   endfacet
   facet normal -9.893705e-001 0.000000e+000 1.454170e-001
      outer loop
         vertex 4.050508e-002 0.000000e+000 2.948202e+000
         vertex 4.050508e-002 2.000000e+000 2.948202e+000
         vertex 7.456169e-003 2.000000e+000 2.692939e+000
      endloop
   endfacet
   facet normal -9.937822e-001 0.000000e+000 1.113418e-001
      outer loop
         vertex 4.050508e-002 0.000000e+000 2.948202e+000
         vertex 7.456169e-003 2.000000e+000 2.692939e+000
         vertex 7.456169e-003 0.000000e+000 2.692939e+000
      endloop
   endfacet
   facet normal -9.990786e-001 0.000000e+000 4.291825e-002
      outer loop
         vertex 7.456169e-003 0.000000e+000 2.692939e+000
         vertex 7.456169e-003 2.000000e+000 2.692939e+000
         vertex 8.288771e-004 2.000000e+000 2.435630e+000
      endloop
   endfacet
   facet normal -9.999633e-001 0.000000e+000 8.569978e-003
      outer loop
         vertex 7.456169e-003 0.000000e+000 2.692939e+000
         vertex 8.288771e-004 2.000000e+000 2.435630e+000
         vertex 8.288771e-004 0.000000e+000 2.435630e+000
      endloop
   endfacet
   facet normal -9.981962e-001 0.000000e+000 -6.003547e-002
      outer loop
         vertex 8.288771e-004 0.000000e+000 2.435630e+000
         vertex 8.288771e-004 2.000000e+000 2.435630e+000
         vertex 2.069329e-002 2.000000e+000 2.179004e+000
      endloop
   endfacet
   facet normal -9.955445e-001 0.000000e+000 -9.429266e-002
      outer loop
         vertex 8.288771e-004 0.000000e+000 2.435630e+000
         vertex 2.069329e-002 2.000000e+000 2.179004e+000
         vertex 2.069329e-002 0.000000e+000 2.179004e+000
      endloop
   endfacet
   facet normal -9.867328e-001 0.000000e+000 -1.623528e-001
      outer loop
         vertex 2.069329e-002 0.000000e+000 2.179004e+000
         vertex 2.069329e-002 2.000000e+000 2.179004e+000
         vertex 6.683893e-002 2.000000e+000 1.925781e+000
      endloop
   endfacet
   facet normal -9.805728e-001 0.000000e+000 -1.961558e-001
      outer loop
         vertex 2.069329e-002 0.000000e+000 2.179004e+000
         vertex 6.683893e-002 2.000000e+000 1.925781e+000
         vertex 6.683893e-002 0.000000e+000 1.925781e+000
      endloop
   endfacet
   facet normal -9.648097e-001 0.000000e+000 -2.629492e-001
      outer loop
         vertex 6.683893e-002 0.000000e+000 1.925781e+000
         vertex 6.683893e-002 2.000000e+000 1.925781e+000
         vertex 1.387768e-001 2.000000e+000 1.678644e+000
      endloop
   endfacet
   facet normal -9.552066e-001 0.000000e+000 -2.959396e-001
      outer loop
         vertex 6.683893e-002 0.000000e+000 1.925781e+000
         vertex 1.387768e-001 2.000000e+000 1.678644e+000
         vertex 1.387768e-001 0.000000e+000 1.678644e+000
      endloop
   endfacet
   facet normal -9.326594e-001 0.000000e+000 -3.607582e-001
      outer loop
         vertex 1.387768e-001 0.000000e+000 1.678644e+000
         vertex 1.387768e-001 2.000000e+000 1.678644e+000
         vertex 2.357443e-001 2.000000e+000 1.440214e+000
      endloop
   endfacet
   facet normal -9.197152e-001 0.000000e+000 -3.925864e-001
      outer loop
         vertex 1.387768e-001 0.000000e+000 1.678644e+000
         vertex 2.357443e-001 2.000000e+000 1.440214e+000
         vertex 2.357443e-001 0.000000e+000 1.440214e+000
      endloop
   endfacet
   facet normal -8.906227e-001 0.000000e+000 -4.547431e-001
      outer loop
         vertex 2.357443e-001 0.000000e+000 1.440214e+000
         vertex 2.357443e-001 2.000000e+000 1.440214e+000
         vertex 3.567133e-001 2.000000e+000 1.213018e+000
      endloop
   endfacet
   facet normal -8.744744e-001 0.000000e+000 -4.850717e-001
      outer loop
         vertex 2.357443e-001 0.000000e+000 1.440214e+000
         vertex 3.567133e-001 2.000000e+000 1.213018e+000
         vertex 3.567133e-001 0.000000e+000 1.213018e+000
      endloop
   endfacet
   facet normal -8.391452e-001 0.000000e+000 -5.439076e-001
      outer loop
         vertex 3.567133e-001 0.000000e+000 1.213018e+000
         vertex 3.567133e-001 2.000000e+000 1.213018e+000
         vertex 5.004020e-001 2.000000e+000 9.994642e-001
      endloop
   endfacet
   facet normal -8.199641e-001 0.000000e+000 -5.724151e-001
      outer loop
         vertex 3.567133e-001 0.000000e+000 1.213018e+000
         vertex 5.004020e-001 2.000000e+000 9.994642e-001
         vertex 5.004020e-001 0.000000e+000 9.994642e-001
      endloop
   endfacet
   facet normal -7.787724e-001 0.000000e+000 -6.273066e-001
      outer loop
         vertex 5.004020e-001 0.000000e+000 9.994642e-001
         vertex 5.004020e-001 2.000000e+000 9.994642e-001
         vertex 6.652865e-001 2.000000e+000 8.018166e-001
      endloop
   endfacet
   facet normal -7.567618e-001 0.000000e+000 -6.536907e-001
      outer loop
         vertex 5.004020e-001 0.000000e+000 9.994642e-001
         vertex 6.652865e-001 2.000000e+000 8.018166e-001
         vertex 6.652865e-001 0.000000e+000 8.018166e-001
      endloop
   endfacet
   facet normal -7.101445e-001 0.000000e+000 -7.040560e-001
      outer loop
         vertex 6.652865e-001 0.000000e+000 8.018166e-001
         vertex 6.652865e-001 2.000000e+000 8.018166e-001
         vertex 8.496196e-001 2.000000e+000 6.221702e-001
      endloop
   endfacet
   facet normal -6.855378e-001 0.000000e+000 -7.280371e-001
      outer loop
         vertex 6.652865e-001 0.000000e+000 8.018166e-001
         vertex 8.496196e-001 2.000000e+000 6.221702e-001
         vertex 8.496196e-001 0.000000e+000 6.221702e-001
      endloop
   endfacet
   facet normal -6.339890e-001 0.000000e+000 -7.733421e-001
      outer loop
         vertex 8.496196e-001 0.000000e+000 6.221702e-001
         vertex 8.496196e-001 2.000000e+000 6.221702e-001
         vertex 1.051447e+000 2.000000e+000 4.624291e-001
      endloop
   endfacet
   facet normal -6.070468e-001 0.000000e+000 -7.946661e-001
      outer loop
         vertex 8.496196e-001 0.000000e+000 6.221702e-001
         vertex 1.051447e+000 2.000000e+000 4.624291e-001
         vertex 1.051447e+000 0.000000e+000 4.624291e-001
      endloop
   endfacet
   facet normal -5.511129e-001 0.000000e+000 -8.344306e-001
      outer loop
         vertex 1.051447e+000 0.000000e+000 4.624291e-001
         vertex 1.051447e+000 2.000000e+000 4.624291e-001
         vertex 1.268630e+000 2.000000e+000 3.242868e-001
      endloop
   endfacet
   facet normal -5.221211e-001 0.000000e+000 -8.528714e-001
      outer loop
         vertex 1.051447e+000 0.000000e+000 4.624291e-001
         vertex 1.268630e+000 2.000000e+000 3.242868e-001
         vertex 1.268630e+000 0.000000e+000 3.242868e-001
      endloop
   endfacet
   facet normal -4.623950e-001 0.000000e+000 -8.866740e-001
      outer loop
         vertex 1.268630e+000 0.000000e+000 3.242868e-001
         vertex 1.268630e+000 2.000000e+000 3.242868e-001
         vertex 1.498865e+000 2.000000e+000 2.092077e-001
      endloop
   endfacet
   facet normal -4.316607e-001 0.000000e+000 -9.020361e-001
      outer loop
         vertex 1.268630e+000 0.000000e+000 3.242868e-001
         vertex 1.498865e+000 2.000000e+000 2.092077e-001
         vertex 1.498865e+000 0.000000e+000 2.092077e-001
      endloop
   endfacet
   facet normal -3.687755e-001 0.000000e+000 -9.295185e-001
      outer loop
         vertex 1.498865e+000 0.000000e+000 2.092077e-001
         vertex 1.498865e+000 2.000000e+000 2.092077e-001
         vertex 1.739713e+000 2.000000e+000 1.184114e-001
      endloop
   endfacet
   facet normal -3.366246e-001 0.000000e+000 -9.416389e-001
      outer loop
         vertex 1.498865e+000 0.000000e+000 2.092077e-001
         vertex 1.739713e+000 2.000000e+000 1.184114e-001
         vertex 1.739713e+000 0.000000e+000 1.184114e-001
      endloop
   endfacet
   facet normal -2.712469e-001 0.000000e+000 -9.625098e-001
      outer loop
         vertex 1.739713e+000 0.000000e+000 1.184114e-001
         vertex 1.739713e+000 2.000000e+000 1.184114e-001
         vertex 1.988620e+000 2.000000e+000 5.286071e-002
      endloop
   endfacet
   facet normal -2.380202e-001 0.000000e+000 -9.712602e-001
      outer loop
         vertex 1.739713e+000 0.000000e+000 1.184114e-001
         vertex 1.988620e+000 2.000000e+000 5.286071e-002
         vertex 1.988620e+000 0.000000e+000 5.286071e-002
      endloop
   endfacet
   facet normal -1.708431e-001 0.000000e+000 -9.852982e-001
      outer loop
         vertex 1.988620e+000 0.000000e+000 5.286071e-002
         vertex 1.988620e+000 2.000000e+000 5.286071e-002
         vertex 2.242948e+000 2.000000e+000 1.325016e-002
      endloop
   endfacet
   facet normal -1.368927e-001 0.000000e+000 -9.905859e-001
      outer loop
         vertex 1.988620e+000 0.000000e+000 5.286071e-002
         vertex 2.242948e+000 2.000000e+000 1.325016e-002
         vertex 2.242948e+000 0.000000e+000 1.325016e-002
      endloop
   endfacet
   facet normal -6.862821e-002 0.000000e+000 -9.976423e-001
      outer loop
         vertex 2.242948e+000 0.000000e+000 1.325016e-002
         vertex 2.242948e+000 2.000000e+000 1.325016e-002
         vertex 2.500000e+000 2.000000e+000 0.000000e+000
      endloop
   endfacet
   facet normal -3.431410e-002 0.000000e+000 -9.994111e-001
      outer loop
         vertex 2.242948e+000 0.000000e+000 1.325016e-002
         vertex 2.500000e+000 2.000000e+000 0.000000e+000
         vertex 2.500000e+000 0.000000e+000 0.000000e+000
      endloop
   endfacet
   facet normal 3.431410e-002 0.000000e+000 -9.994111e-001
      outer loop
         vertex 2.500000e+000 0.000000e+000 0.000000e+000
         vertex 2.500000e+000 2.000000e+000 0.000000e+000
         vertex 2.757052e+000 2.000000e+000 1.325016e-002
      endloop
   endfacet
   facet normal 6.862821e-002 0.000000e+000 -9.976423e-001
      outer loop
         vertex 2.500000e+000 0.000000e+000 0.000000e+000
         vertex 2.757052e+000 2.000000e+000 1.325016e-002
         vertex 2.757052e+000 0.000000e+000 1.325016e-002
      endloop
   endfacet
   facet normal 1.368927e-001 0.000000e+000 -9.905859e-001
      outer loop
         vertex 2.757052e+000 0.000000e+000 1.325016e-002
         vertex 2.757052e+000 2.000000e+000 1.325016e-002
         vertex 3.011380e+000 2.000000e+000 5.286071e-002
      endloop
   endfacet
   facet normal 1.708431e-001 0.000000e+000 -9.852982e-001
      outer loop
         vertex 2.757052e+000 0.000000e+000 1.325016e-002
         vertex 3.011380e+000 2.000000e+000 5.286071e-002
         vertex 3.011380e+000 0.000000e+000 5.286071e-002
      endloop
   endfacet
   facet normal 2.380202e-001 0.000000e+000 -9.712602e-001
      outer loop
         vertex 3.011380e+000 0.000000e+000 5.286071e-002
         vertex 3.011380e+000 2.000000e+000 5.286071e-002
         vertex 3.260287e+000 2.000000e+000 1.184114e-001
      endloop
   endfacet
   facet normal 2.712469e-001 0.000000e+000 -9.625098e-001
      outer loop
         vertex 3.011380e+000 0.000000e+000 5.286071e-002
         vertex 3.260287e+000 2.000000e+000 1.184114e-001
         vertex 3.260287e+000 0.000000e+000 1.184114e-001
      endloop
   endfacet
   facet normal 3.366246e-001 0.000000e+000 -9.416389e-001
      outer loop
         vertex 3.260287e+000 0.000000e+000 1.184114e-001
         vertex 3.260287e+000 2.000000e+000 1.184114e-001
         vertex 3.501135e+000 2.000000e+000 2.092077e-001
      endloop
   endfacet
   facet normal 3.687755e-001 0.000000e+000 -9.295185e-001
      outer loop
         vertex 3.260287e+000 0.000000e+000 1.184114e-001
         vertex 3.501135e+000 2.000000e+000 2.092077e-001
         vertex 3.501135e+000 0.000000e+000 2.092077e-001
      endloop
   endfacet
   facet normal 4.316607e-001 0.000000e+000 -9.020361e-001
      outer loop
         vertex 3.501135e+000 0.000000e+000 2.092077e-001
         vertex 3.501135e+000 2.000000e+000 2.092077e-001
         vertex 3.731370e+000 2.000000e+000 3.242868e-001
      endloop
   endfacet
   facet normal 4.623950e-001 0.000000e+000 -8.866740e-001
      outer loop
         vertex 3.501135e+000 0.000000e+000 2.092077e-001
         vertex 3.731370e+000 2.000000e+000 3.242868e-001
         vertex 3.731370e+000 0.000000e+000 3.242868e-001
      endloop
   endfacet
   facet normal 5.221211e-001 0.000000e+000 -8.528714e-001
      outer loop
         vertex 3.731370e+000 0.000000e+000 3.242868e-001
         vertex 3.731370e+000 2.000000e+000 3.242868e-001
         vertex 3.948553e+000 2.000000e+000 4.624291e-001
      endloop
   endfacet
   facet normal 5.511129e-001 0.000000e+000 -8.344306e-001
      outer loop
         vertex 3.731370e+000 0.000000e+000 3.242868e-001
         vertex 3.948553e+000 2.000000e+000 4.624291e-001
         vertex 3.948553e+000 0.000000e+000 4.624291e-001
      endloop
   endfacet
   facet normal 6.070468e-001 0.000000e+000 -7.946661e-001
      outer loop
         vertex 3.948553e+000 0.000000e+000 4.624291e-001
         vertex 3.948553e+000 2.000000e+000 4.624291e-001
         vertex 4.150381e+000 2.000000e+000 6.221702e-001
      endloop
   endfacet
   facet normal 6.339890e-001 0.000000e+000 -7.733421e-001
      outer loop
         vertex 3.948553e+000 0.000000e+000 4.624291e-001
         vertex 4.150381e+000 2.000000e+000 6.221702e-001
         vertex 4.150381e+000 0.000000e+000 6.221702e-001
      endloop
   endfacet
   facet normal 6.855378e-001 0.000000e+000 -7.280371e-001
      outer loop
         vertex 4.150381e+000 0.000000e+000 6.221702e-001
         vertex 4.150381e+000 2.000000e+000 6.221702e-001
         vertex 4.334713e+000 2.000000e+000 8.018166e-001
      endloop
   endfacet
   facet normal 7.101445e-001 0.000000e+000 -7.040560e-001
      outer loop
         vertex 4.150381e+000 0.000000e+000 6.221702e-001
         vertex 4.334713e+000 2.000000e+000 8.018166e-001
         vertex 4.334713e+000 0.000000e+000 8.018166e-001
      endloop
   endfacet
   facet normal 7.567618e-001 0.000000e+000 -6.536906e-001
      outer loop
         vertex 4.334713e+000 0.000000e+000 8.018166e-001
         vertex 4.334713e+000 2.000000e+000 8.018166e-001
         vertex 4.499598e+000 2.000000e+000 9.994642e-001
      endloop
   endfacet
   facet normal 7.787724e-001 0.000000e+000 -6.273066e-001
      outer loop
         vertex 4.334713e+000 0.000000e+000 8.018166e-001
         vertex 4.499598e+000 2.000000e+000 9.994642e-001
         vertex 4.499598e+000 0.000000e+000 9.994642e-001
      endloop
   endfacet
   facet normal 8.199641e-001 0.000000e+000 -5.724151e-001
      outer loop
         vertex 4.499598e+000 0.000000e+000 9.994642e-001
         vertex 4.499598e+000 2.000000e+000 9.994642e-001
         vertex 4.643287e+000 2.000000e+000 1.213018e+000
      endloop
   endfacet
   facet normal 8.391451e-001 0.000000e+000 -5.439076e-001
      outer loop
         vertex 4.499598e+000 0.000000e+000 9.994642e-001
         vertex 4.643287e+000 2.000000e+000 1.213018e+000
         vertex 4.643287e+000 0.000000e+000 1.213018e+000
      endloop
   endfacet
   facet normal 8.744744e-001 0.000000e+000 -4.850717e-001
      outer loop
         vertex 4.643287e+000 0.000000e+000 1.213018e+000
         vertex 4.643287e+000 2.000000e+000 1.213018e+000
         vertex 4.764256e+000 2.000000e+000 1.440214e+000
      endloop
   endfacet
   facet normal 8.906227e-001 0.000000e+000 -4.547431e-001
      outer loop
         vertex 4.643287e+000 0.000000e+000 1.213018e+000
         vertex 4.764256e+000 2.000000e+000 1.440214e+000
         vertex 4.764256e+000 0.000000e+000 1.440214e+000
      endloop
   endfacet
   facet normal 9.197152e-001 0.000000e+000 -3.925864e-001
      outer loop
         vertex 4.764256e+000 0.000000e+000 1.440214e+000
         vertex 4.764256e+000 2.000000e+000 1.440214e+000
         vertex 4.861223e+000 2.000000e+000 1.678644e+000
      endloop
   endfacet
   facet normal 9.326594e-001 0.000000e+000 -3.607582e-001
      outer loop
         vertex 4.764256e+000 0.000000e+000 1.440214e+000
         vertex 4.861223e+000 2.000000e+000 1.678644e+000
         vertex 4.861223e+000 0.000000e+000 1.678644e+000
      endloop
   endfacet
   facet normal 9.552066e-001 0.000000e+000 -2.959396e-001
      outer loop
         vertex 4.861223e+000 0.000000e+000 1.678644e+000
         vertex 4.861223e+000 2.000000e+000 1.678644e+000
         vertex 4.933161e+000 2.000000e+000 1.925781e+000
      endloop
   endfacet
   facet normal 9.648097e-001 0.000000e+000 -2.629492e-001
      outer loop
         vertex 4.861223e+000 0.000000e+000 1.678644e+000
         vertex 4.933161e+000 2.000000e+000 1.925781e+000
         vertex 4.933161e+000 0.000000e+000 1.925781e+000
      endloop
   endfacet
   facet normal 9.805728e-001 0.000000e+000 -1.961558e-001
      outer loop
         vertex 4.933161e+000 0.000000e+000 1.925781e+000
         vertex 4.933161e+000 2.000000e+000 1.925781e+000
         vertex 4.979307e+000 2.000000e+000 2.179004e+000
      endloop
   endfacet
   facet normal 9.867328e-001 0.000000e+000 -1.623528e-001
      outer loop
         vertex 4.933161e+000 0.000000e+000 1.925781e+000
         vertex 4.979307e+000 2.000000e+000 2.179004e+000
         vertex 4.979307e+000 0.000000e+000 2.179004e+000
      endloop
   endfacet
   facet normal 9.955445e-001 0.000000e+000 -9.429267e-002
      outer loop
         vertex 4.979307e+000 0.000000e+000 2.179004e+000
         vertex 4.979307e+000 2.000000e+000 2.179004e+000
         vertex 4.999171e+000 2.000000e+000 2.435630e+000
      endloop
   endfacet
   facet normal 9.981962e-001 0.000000e+000 -6.003547e-002
      outer loop
         vertex 4.979307e+000 0.000000e+000 2.179004e+000
         vertex 4.999171e+000 2.000000e+000 2.435630e+000
         vertex 4.999171e+000 0.000000e+000 2.435630e+000
      endloop
   endfacet
   facet normal 9.999633e-001 0.000000e+000 8.569978e-003
      outer loop
         vertex 4.999171e+000 0.000000e+000 2.435630e+000
         vertex 4.999171e+000 2.000000e+000 2.435630e+000
         vertex 4.992544e+000 2.000000e+000 2.692939e+000
      endloop
   endfacet
   facet normal 9.990786e-001 0.000000e+000 4.291825e-002
      outer loop
         vertex 4.999171e+000 0.000000e+000 2.435630e+000
         vertex 4.992544e+000 2.000000e+000 2.692939e+000
         vertex 4.992544e+000 0.000000e+000 2.692939e+000
      endloop
   endfacet
   facet normal 9.937822e-001 0.000000e+000 1.113418e-001
      outer loop
         vertex 4.992544e+000 0.000000e+000 2.692939e+000
         vertex 4.992544e+000 2.000000e+000 2.692939e+000
         vertex 4.959495e+000 2.000000e+000 2.948202e+000
      endloop
   endfacet
   facet normal 9.893705e-001 0.000000e+000 1.454170e-001
      outer loop
         vertex 4.992544e+000 0.000000e+000 2.692939e+000
         vertex 4.959495e+000 2.000000e+000 2.948202e+000
         vertex 4.959495e+000 0.000000e+000 2.948202e+000
      endloop
   endfacet
   facet normal 9.770668e-001 0.000000e+000 2.129333e-001
      outer loop
         vertex 4.959495e+000 0.000000e+000 2.948202e+000
         vertex 4.959495e+000 2.000000e+000 2.948202e+000
         vertex 4.900374e+000 2.000000e+000 3.198714e+000
      endloop
   endfacet
   facet normal 9.691747e-001 0.000000e+000 2.463744e-001
      outer loop
         vertex 4.959495e+000 0.000000e+000 2.948202e+000
         vertex 4.900374e+000 2.000000e+000 3.198714e+000
         vertex 4.900374e+000 0.000000e+000 3.198714e+000
      endloop
   endfacet
   facet normal 9.499941e-001 0.000000e+000 3.122677e-001
      outer loop
         vertex 4.900374e+000 0.000000e+000 3.198714e+000
         vertex 4.900374e+000 2.000000e+000 3.198714e+000
         vertex 4.815810e+000 2.000000e+000 3.441820e+000
      endloop
   endfacet
   facet normal 9.387056e-001 0.000000e+000 3.447200e-001
      outer loop
         vertex 4.900374e+000 0.000000e+000 3.198714e+000
         vertex 4.815810e+000 2.000000e+000 3.441820e+000
         vertex 4.815810e+000 0.000000e+000 3.441820e+000
      endloop
   endfacet
   facet normal 9.128514e-001 0.000000e+000 4.082920e-001
      outer loop
         vertex 4.815810e+000 0.000000e+000 3.441820e+000
         vertex 4.815810e+000 2.000000e+000 3.441820e+000
         vertex 4.706697e+000 2.000000e+000 3.674942e+000
      endloop
   endfacet
   facet normal 8.982859e-001 0.000000e+000 4.394116e-001
      outer loop
         vertex 4.815810e+000 0.000000e+000 3.441820e+000
         vertex 4.706697e+000 2.000000e+000 3.674942e+000
         vertex 4.706697e+000 0.000000e+000 3.674942e+000
      endloop
   endfacet
   facet normal 8.660321e-001 0.000000e+000 4.999883e-001
      outer loop
         vertex 4.706697e+000 0.000000e+000 3.674942e+000
         vertex 4.706697e+000 2.000000e+000 3.674942e+000
         vertex 4.574193e+000 2.000000e+000 3.895609e+000
      endloop
   endfacet
   facet normal 8.483440e-001 0.000000e+000 5.294454e-001
      outer loop
         vertex 4.706697e+000 0.000000e+000 3.674942e+000
         vertex 4.574193e+000 2.000000e+000 3.895609e+000
         vertex 4.574193e+000 0.000000e+000 3.895609e+000
      endloop
   endfacet
   facet normal 8.100328e-001 0.000000e+000 5.863846e-001
      outer loop
         vertex 4.574193e+000 0.000000e+000 3.895609e+000
         vertex 4.574193e+000 2.000000e+000 3.895609e+000
         vertex 4.419701e+000 2.000000e+000 4.101483e+000
      endloop
   endfacet
   facet normal 7.894096e-001 0.000000e+000 6.138668e-001
      outer loop
         vertex 4.574193e+000 0.000000e+000 3.895609e+000
         vertex 4.419701e+000 2.000000e+000 4.101483e+000
         vertex 4.419701e+000 0.000000e+000 4.101483e+000
      endloop
   endfacet
   facet normal 7.454469e-001 0.000000e+000 6.665651e-001
      outer loop
         vertex 4.419701e+000 0.000000e+000 4.101483e+000
         vertex 4.419701e+000 2.000000e+000 4.101483e+000
         vertex 4.244860e+000 2.000000e+000 4.290380e+000
      endloop
   endfacet
   facet normal 7.221073e-001 0.000000e+000 6.917812e-001
      outer loop
         vertex 4.419701e+000 0.000000e+000 4.101483e+000
         vertex 4.244860e+000 2.000000e+000 4.290380e+000
         vertex 4.244860e+000 0.000000e+000 4.290380e+000
      endloop
   endfacet
   facet normal 6.729590e-001 0.000000e+000 7.396798e-001
      outer loop
         vertex 4.244860e+000 0.000000e+000 4.290380e+000
         vertex 4.244860e+000 2.000000e+000 4.290380e+000
         vertex 4.051524e+000 2.000000e+000 4.460299e+000
      endloop
   endfacet
   facet normal 6.471504e-001 0.000000e+000 7.623624e-001
      outer loop
         vertex 4.244860e+000 0.000000e+000 4.290380e+000
         vertex 4.051524e+000 2.000000e+000 4.460299e+000
         vertex 4.051524e+000 0.000000e+000 4.460299e+000
      endloop
   endfacet
   facet normal 5.933376e-001 0.000000e+000 8.049538e-001
      outer loop
         vertex 4.051524e+000 0.000000e+000 4.460299e+000
         vertex 4.051524e+000 2.000000e+000 4.460299e+000
         vertex 3.841741e+000 2.000000e+000 4.609438e+000
      endloop
   endfacet
   facet normal 5.653335e-001 0.000000e+000 8.248624e-001
      outer loop
         vertex 4.051524e+000 0.000000e+000 4.460299e+000
         vertex 3.841741e+000 2.000000e+000 4.609438e+000
         vertex 3.841741e+000 0.000000e+000 4.609438e+000
      endloop
   endfacet
   facet normal 5.074267e-001 0.000000e+000 8.616949e-001
      outer loop
         vertex 3.841741e+000 0.000000e+000 4.609438e+000
         vertex 3.841741e+000 2.000000e+000 4.609438e+000
         vertex 3.617734e+000 2.000000e+000 4.736217e+000
      endloop
   endfacet
   facet normal 4.775240e-001 0.000000e+000 8.786187e-001
      outer loop
         vertex 3.841741e+000 0.000000e+000 4.609438e+000
         vertex 3.617734e+000 2.000000e+000 4.736217e+000
         vertex 3.617734e+000 0.000000e+000 4.736217e+000
      endloop
   endfacet
   facet normal 4.161370e-001 0.000000e+000 9.093020e-001
      outer loop
         vertex 3.617734e+000 0.000000e+000 4.736217e+000
         vertex 3.617734e+000 2.000000e+000 4.736217e+000
         vertex 3.381880e+000 2.000000e+000 4.839292e+000
      endloop
   endfacet
   facet normal 3.846526e-001 0.000000e+000 9.230614e-001
      outer loop
         vertex 3.617734e+000 0.000000e+000 4.736217e+000
         vertex 3.381880e+000 2.000000e+000 4.839292e+000
         vertex 3.381880e+000 0.000000e+000 4.839292e+000
      endloop
   endfacet
   facet normal 3.204361e-001 0.000000e+000 9.472702e-001
      outer loop
         vertex 3.381880e+000 0.000000e+000 4.839292e+000
         vertex 3.381880e+000 2.000000e+000 4.839292e+000
         vertex 3.136678e+000 2.000000e+000 4.917570e+000
      endloop
   endfacet
   facet normal 2.877038e-001 0.000000e+000 9.577194e-001
      outer loop
         vertex 3.381880e+000 0.000000e+000 4.839292e+000
         vertex 3.136678e+000 2.000000e+000 4.917570e+000
         vertex 3.136678e+000 0.000000e+000 4.917570e+000
      endloop
   endfacet
   facet normal 2.213384e-001 0.000000e+000 9.751971e-001
      outer loop
         vertex 3.136678e+000 0.000000e+000 4.917570e+000
         vertex 3.136678e+000 2.000000e+000 4.917570e+000
         vertex 2.884727e+000 2.000000e+000 4.970220e+000
      endloop
   endfacet
   facet normal 1.877053e-001 0.000000e+000 9.822254e-001
      outer loop
         vertex 3.136678e+000 0.000000e+000 4.917570e+000
         vertex 2.884727e+000 2.000000e+000 4.970220e+000
         vertex 2.884727e+000 0.000000e+000 4.970220e+000
      endloop
   endfacet
   facet normal 1.198946e-001 0.000000e+000 9.927866e-001
      outer loop
         vertex 2.884727e+000 0.000000e+000 4.970220e+000
         vertex 2.884727e+000 2.000000e+000 4.970220e+000
         vertex 2.628697e+000 2.000000e+000 4.996686e+000
      endloop
   endfacet
   facet normal 8.571704e-002 0.000000e+000 9.963195e-001
      outer loop
         vertex 2.884727e+000 0.000000e+000 4.970220e+000
         vertex 2.628697e+000 2.000000e+000 4.996686e+000
         vertex 2.628697e+000 0.000000e+000 4.996686e+000
      endloop
   endfacet
   facet normal 3.432928e-002 0.000000e+000 9.994106e-001
      outer loop
         vertex 2.628697e+000 0.000000e+000 4.996686e+000
         vertex 2.628697e+000 2.000000e+000 4.996686e+000
         vertex 2.500000e+000 0.000000e+000 5.000000e+000
      endloop
   endfacet
   facet normal 0.000000e+000 1.000000e+000 0.000000e+000
      outer loop
         vertex 2.500000e+000 2.000000e+000 5.000000e+000
         vertex 2.628697e+000 2.000000e+000 4.996686e+000
         vertex 2.500000e+000 2.000000e+000 2.500000e+000
      endloop
   endfacet
   facet normal 0.000000e+000 1.000000e+000 0.000000e+000
      outer loop
         vertex 2.500000e+000 2.000000e+000 5.000000e+000
         vertex 2.500000e+000 2.000000e+000 2.500000e+000
         vertex 2.371303e+000 2.000000e+000 4.996686e+000
      endloop
   endfacet
   facet normal 0.000000e+000 1.000000e+000 0.000000e+000
      outer loop
         vertex 1.618120e+000 2.000000e+000 4.839292e+000
         vertex 1.863322e+000 2.000000e+000 4.917570e+000
         vertex 2.500000e+000 2.000000e+000 2.500000e+000
      endloop
   endfacet
   facet normal 0.000000e+000 1.000000e+000 0.000000e+000
      outer loop
         vertex 2.500000e+000 2.000000e+000 2.500000e+000
         vertex 1.863322e+000 2.000000e+000 4.917570e+000
         vertex 2.115273e+000 2.000000e+000 4.970220e+000
      endloop
   endfacet
   facet normal 0.000000e+000 1.000000e+000 0.000000e+000
      outer loop
         vertex 2.500000e+000 2.000000e+000 2.500000e+000
         vertex 2.115273e+000 2.000000e+000 4.970220e+000
         vertex 2.371303e+000 2.000000e+000 4.996686e+000
      endloop
   endfacet
   facet normal 0.000000e+000 1.000000e+000 0.000000e+000
      outer loop
         vertex 9.484763e-001 2.000000e+000 4.460299e+000
         vertex 1.158260e+000 2.000000e+000 4.609438e+000
         vertex 2.500000e+000 2.000000e+000 2.500000e+000
      endloop
   endfacet
   facet normal 0.000000e+000 1.000000e+000 0.000000e+000
      outer loop
         vertex 2.500000e+000 2.000000e+000 2.500000e+000
         vertex 1.158260e+000 2.000000e+000 4.609438e+000
         vertex 1.382265e+000 2.000000e+000 4.736217e+000
      endloop
   endfacet
   facet normal 0.000000e+000 1.000000e+000 0.000000e+000
      outer loop
         vertex 2.500000e+000 2.000000e+000 2.500000e+000
         vertex 1.382265e+000 2.000000e+000 4.736217e+000
         vertex 1.618120e+000 2.000000e+000 4.839292e+000
      endloop
   endfacet
   facet normal 0.000000e+000 1.000000e+000 0.000000e+000
      outer loop
         vertex 4.258074e-001 2.000000e+000 3.895609e+000
         vertex 5.802988e-001 2.000000e+000 4.101483e+000
         vertex 2.500000e+000 2.000000e+000 2.500000e+000
      endloop
   endfacet
   facet normal 0.000000e+000 1.000000e+000 0.000000e+000
      outer loop
         vertex 2.500000e+000 2.000000e+000 2.500000e+000
         vertex 5.802988e-001 2.000000e+000 4.101483e+000
         vertex 7.551395e-001 2.000000e+000 4.290380e+000
      endloop
   endfacet
   facet normal 0.000000e+000 1.000000e+000 0.000000e+000
      outer loop
         vertex 2.500000e+000 2.000000e+000 2.500000e+000
         vertex 7.551395e-001 2.000000e+000 4.290380e+000
         vertex 9.484763e-001 2.000000e+000 4.460299e+000
      endloop
   endfacet
   facet normal 0.000000e+000 1.000000e+000 0.000000e+000
      outer loop
         vertex 9.962521e-002 2.000000e+000 3.198714e+000
         vertex 1.841900e-001 2.000000e+000 3.441820e+000
         vertex 2.500000e+000 2.000000e+000 2.500000e+000
      endloop
   endfacet
   facet normal 0.000000e+000 1.000000e+000 0.000000e+000
      outer loop
         vertex 2.500000e+000 2.000000e+000 2.500000e+000
         vertex 1.841900e-001 2.000000e+000 3.441820e+000
         vertex 2.933030e-001 2.000000e+000 3.674942e+000
      endloop
   endfacet
   facet normal 0.000000e+000 1.000000e+000 0.000000e+000
      outer loop
         vertex 2.500000e+000 2.000000e+000 2.500000e+000
         vertex 2.933030e-001 2.000000e+000 3.674942e+000
         vertex 4.258074e-001 2.000000e+000 3.895609e+000
      endloop
   endfacet
   facet normal 0.000000e+000 1.000000e+000 0.000000e+000
      outer loop
         vertex 8.288771e-004 2.000000e+000 2.435630e+000
         vertex 7.456169e-003 2.000000e+000 2.692939e+000
         vertex 2.500000e+000 2.000000e+000 2.500000e+000
      endloop
   endfacet
   facet normal 0.000000e+000 1.000000e+000 0.000000e+000
      outer loop
         vertex 2.500000e+000 2.000000e+000 2.500000e+000
         vertex 7.456169e-003 2.000000e+000 2.692939e+000
         vertex 4.050508e-002 2.000000e+000 2.948202e+000
      endloop
   endfacet
   facet normal 0.000000e+000 1.000000e+000 0.000000e+000
      outer loop
         vertex 2.500000e+000 2.000000e+000 2.500000e+000
         vertex 4.050508e-002 2.000000e+000 2.948202e+000
         vertex 9.962521e-002 2.000000e+000 3.198714e+000
      endloop
   endfacet
   facet normal 0.000000e+000 1.000000e+000 0.000000e+000
      outer loop
         vertex 1.387768e-001 2.000000e+000 1.678644e+000
         vertex 6.683893e-002 2.000000e+000 1.925781e+000
         vertex 2.500000e+000 2.000000e+000 2.500000e+000
      endloop
   endfacet
   facet normal 0.000000e+000 1.000000e+000 0.000000e+000
      outer loop
         vertex 2.500000e+000 2.000000e+000 2.500000e+000
         vertex 6.683893e-002 2.000000e+000 1.925781e+000
         vertex 2.069329e-002 2.000000e+000 2.179004e+000
      endloop
   endfacet
   facet normal 0.000000e+000 1.000000e+000 0.000000e+000
      outer loop
         vertex 2.500000e+000 2.000000e+000 2.500000e+000
         vertex 2.069329e-002 2.000000e+000 2.179004e+000
         vertex 8.288771e-004 2.000000e+000 2.435630e+000
      endloop
   endfacet
   facet normal 0.000000e+000 1.000000e+000 0.000000e+000
      outer loop
         vertex 5.004020e-001 2.000000e+000 9.994642e-001
         vertex 3.567133e-001 2.000000e+000 1.213018e+000
         vertex 2.500000e+000 2.000000e+000 2.500000e+000
      endloop
   endfacet
   facet normal 0.000000e+000 1.000000e+000 0.000000e+000
      outer loop
         vertex 2.500000e+000 2.000000e+000 2.500000e+000
         vertex 3.567133e-001 2.000000e+000 1.213018e+000
         vertex 2.357443e-001 2.000000e+000 1.440214e+000
      endloop
   endfacet
   facet normal 0.000000e+000 1.000000e+000 0.000000e+000
      outer loop
         vertex 2.500000e+000 2.000000e+000 2.500000e+000
         vertex 2.357443e-001 2.000000e+000 1.440214e+000
         vertex 1.387768e-001 2.000000e+000 1.678644e+000
      endloop
   endfacet
   facet normal 0.000000e+000 1.000000e+000 0.000000e+000
      outer loop
         vertex 1.051447e+000 2.000000e+000 4.624291e-001
         vertex 8.496196e-001 2.000000e+000 6.221702e-001
         vertex 2.500000e+000 2.000000e+000 2.500000e+000
      endloop
   endfacet
   facet normal 0.000000e+000 1.000000e+000 0.000000e+000
      outer loop
         vertex 2.500000e+000 2.000000e+000 2.500000e+000
         vertex 8.496196e-001 2.000000e+000 6.221702e-001
         vertex 6.652865e-001 2.000000e+000 8.018166e-001
      endloop
   endfacet
   facet normal 0.000000e+000 1.000000e+000 0.000000e+000
      outer loop
         vertex 2.500000e+000 2.000000e+000 2.500000e+000
         vertex 6.652865e-001 2.000000e+000 8.018166e-001
         vertex 5.004020e-001 2.000000e+000 9.994642e-001
      endloop
   endfacet
   facet normal 0.000000e+000 1.000000e+000 0.000000e+000
      outer loop
         vertex 1.739713e+000 2.000000e+000 1.184114e-001
         vertex 1.498865e+000 2.000000e+000 2.092077e-001
         vertex 2.500000e+000 2.000000e+000 2.500000e+000
      endloop
   endfacet
   facet normal 0.000000e+000 1.000000e+000 0.000000e+000
      outer loop
         vertex 2.500000e+000 2.000000e+000 2.500000e+000
         vertex 1.498865e+000 2.000000e+000 2.092077e-001
         vertex 1.268630e+000 2.000000e+000 3.242868e-001
      endloop
   endfacet
   facet normal 0.000000e+000 1.000000e+000 0.000000e+000
      outer loop
         vertex 2.500000e+000 2.000000e+000 2.500000e+000
         vertex 1.268630e+000 2.000000e+000 3.242868e-001
         vertex 1.051447e+000 2.000000e+000 4.624291e-001
      endloop
   endfacet
   facet normal 0.000000e+000 1.000000e+000 0.000000e+000
      outer loop
         vertex 2.500000e+000 2.000000e+000 0.000000e+000
         vertex 2.242948e+000 2.000000e+000 1.325016e-002
         vertex 2.500000e+000 2.000000e+000 2.500000e+000
      endloop
   endfacet
   facet normal 0.000000e+000 1.000000e+000 0.000000e+000
      outer loop
         vertex 2.500000e+000 2.000000e+000 2.500000e+000
         vertex 2.242948e+000 2.000000e+000 1.325016e-002
         vertex 1.988620e+000 2.000000e+000 5.286071e-002
      endloop
   endfacet
   facet normal 0.000000e+000 1.000000e+000 0.000000e+000
      outer loop
         vertex 2.500000e+000 2.000000e+000 2.500000e+000
         vertex 1.988620e+000 2.000000e+000 5.286071e-002
         vertex 1.739713e+000 2.000000e+000 1.184114e-001
      endloop
   endfacet
   facet normal 0.000000e+000 1.000000e+000 0.000000e+000
      outer loop
         vertex 3.260287e+000 2.000000e+000 1.184114e-001
         vertex 3.011380e+000 2.000000e+000 5.286071e-002
         vertex 2.500000e+000 2.000000e+000 2.500000e+000
      endloop
   endfacet
   facet normal 0.000000e+000 1.000000e+000 0.000000e+000
      outer loop
         vertex 2.500000e+000 2.000000e+000 2.500000e+000
         vertex 3.011380e+000 2.000000e+000 5.286071e-002
         vertex 2.757052e+000 2.000000e+000 1.325016e-002
      endloop
   endfacet
   facet normal 0.000000e+000 1.000000e+000 0.000000e+000
      outer loop
         vertex 2.500000e+000 2.000000e+000 2.500000e+000
         vertex 2.757052e+000 2.000000e+000 1.325016e-002
         vertex 2.500000e+000 2.000000e+000 0.000000e+000
      endloop
   endfacet
   facet normal 0.000000e+000 1.000000e+000 0.000000e+000
      outer loop
         vertex 3.948553e+000 2.000000e+000 4.624291e-001
         vertex 3.731370e+000 2.000000e+000 3.242868e-001
         vertex 2.500000e+000 2.000000e+000 2.500000e+000
      endloop
   endfacet
   facet normal 0.000000e+000 1.000000e+000 0.000000e+000
      outer loop
         vertex 2.500000e+000 2.000000e+000 2.500000e+000
         vertex 3.731370e+000 2.000000e+000 3.242868e-001
         vertex 3.501135e+000 2.000000e+000 2.092077e-001
      endloop
   endfacet
   facet normal 0.000000e+000 1.000000e+000 0.000000e+000
      outer loop
         vertex 2.500000e+000 2.000000e+000 2.500000e+000
         vertex 3.501135e+000 2.000000e+000 2.092077e-001
         vertex 3.260287e+000 2.000000e+000 1.184114e-001
      endloop
   endfacet
   facet normal 0.000000e+000 1.000000e+000 0.000000e+000
      outer loop
         vertex 4.499598e+000 2.000000e+000 9.994642e-001
         vertex 4.334713e+000 2.000000e+000 8.018166e-001
         vertex 2.500000e+000 2.000000e+000 2.500000e+000
      endloop
   endfacet
   facet normal 0.000000e+000 1.000000e+000 0.000000e+000
      outer loop
         vertex 2.500000e+000 2.000000e+000 2.500000e+000
         vertex 4.334713e+000 2.000000e+000 8.018166e-001
         vertex 4.150381e+000 2.000000e+000 6.221702e-001
      endloop
   endfacet
   facet normal 0.000000e+000 1.000000e+000 0.000000e+000
      outer loop
         vertex 2.500000e+000 2.000000e+000 2.500000e+000
         vertex 4.150381e+000 2.000000e+000 6.221702e-001
         vertex 3.948553e+000 2.000000e+000 4.624291e-001
      endloop
   endfacet
   facet normal 0.000000e+000 1.000000e+000 0.000000e+000
      outer loop
         vertex 4.861223e+000 2.000000e+000 1.678644e+000
         vertex 4.764256e+000 2.000000e+000 1.440214e+000
         vertex 2.500000e+000 2.000000e+000 2.500000e+000
      endloop
   endfacet
   facet normal 0.000000e+000 1.000000e+000 0.000000e+000
      outer loop
         vertex 2.500000e+000 2.000000e+000 2.500000e+000
         vertex 4.764256e+000 2.000000e+000 1.440214e+000
         vertex 4.643287e+000 2.000000e+000 1.213018e+000
      endloop
   endfacet
   facet normal 0.000000e+000 1.000000e+000 0.000000e+000
      outer loop
         vertex 2.500000e+000 2.000000e+000 2.500000e+000
         vertex 4.643287e+000 2.000000e+000 1.213018e+000
         vertex 4.499598e+000 2.000000e+000 9.994642e-001
      endloop
   endfacet
   facet normal 0.000000e+000 1.000000e+000 0.000000e+000
      outer loop
         vertex 4.999171e+000 2.000000e+000 2.435630e+000
         vertex 4.979307e+000 2.000000e+000 2.179004e+000
         vertex 2.500000e+000 2.000000e+000 2.500000e+000
      endloop
   endfacet
   facet normal 0.000000e+000 1.000000e+000 0.000000e+000
      outer loop
         vertex 2.500000e+000 2.000000e+000 2.500000e+000
         vertex 4.979307e+000 2.000000e+000 2.179004e+000
         vertex 4.933161e+000 2.000000e+000 1.925781e+000
      endloop
   endfacet
   facet normal 0.000000e+000 1.000000e+000 0.000000e+000
      outer loop
         vertex 2.500000e+000 2.000000e+000 2.500000e+000
         vertex 4.933161e+000 2.000000e+000 1.925781e+000
         vertex 4.861223e+000 2.000000e+000 1.678644e+000
      endloop
   endfacet
   facet normal 0.000000e+000 1.000000e+000 0.000000e+000
      outer loop
         vertex 4.900374e+000 2.000000e+000 3.198714e+000
         vertex 4.959495e+000 2.000000e+000 2.948202e+000
         vertex 2.500000e+000 2.000000e+000 2.500000e+000
      endloop
   endfacet
   facet normal 0.000000e+000 1.000000e+000 0.000000e+000
      outer loop
         vertex 2.500000e+000 2.000000e+000 2.500000e+000
         vertex 4.959495e+000 2.000000e+000 2.948202e+000
         vertex 4.992544e+000 2.000000e+000 2.692939e+000
      endloop
   endfacet
   facet normal 0.000000e+000 1.000000e+000 0.000000e+000
      outer loop
         vertex 2.500000e+000 2.000000e+000 2.500000e+000
         vertex 4.992544e+000 2.000000e+000 2.692939e+000
         vertex 4.999171e+000 2.000000e+000 2.435630e+000
      endloop
   endfacet
   facet normal 0.000000e+000 1.000000e+000 0.000000e+000
      outer loop
         vertex 4.574193e+000 2.000000e+000 3.895609e+000
         vertex 4.706697e+000 2.000000e+000 3.674942e+000
         vertex 2.500000e+000 2.000000e+000 2.500000e+000
      endloop
   endfacet
   facet normal 0.000000e+000 1.000000e+000 0.000000e+000
      outer loop
         vertex 2.500000e+000 2.000000e+000 2.500000e+000
         vertex 4.706697e+000 2.000000e+000 3.674942e+000
         vertex 4.815810e+000 2.000000e+000 3.441820e+000
      endloop
   endfacet
   facet normal 0.000000e+000 1.000000e+000 0.000000e+000
      outer loop
         vertex 2.500000e+000 2.000000e+000 2.500000e+000
         vertex 4.815810e+000 2.000000e+000 3.441820e+000
         vertex 4.900374e+000 2.000000e+000 3.198714e+000
      endloop
   endfacet
   facet normal 0.000000e+000 1.000000e+000 0.000000e+000
      outer loop
         vertex 4.051524e+000 2.000000e+000 4.460299e+000
         vertex 4.244860e+000 2.000000e+000 4.290380e+000
         vertex 2.500000e+000 2.000000e+000 2.500000e+000
      endloop
   endfacet
   facet normal 0.000000e+000 1.000000e+000 0.000000e+000
      outer loop
         vertex 2.500000e+000 2.000000e+000 2.500000e+000
         vertex 4.244860e+000 2.000000e+000 4.290380e+000
         vertex 4.419701e+000 2.000000e+000 4.101483e+000
      endloop
   endfacet
   facet normal 0.000000e+000 1.000000e+000 0.000000e+000
      outer loop
         vertex 2.500000e+000 2.000000e+000 2.500000e+000
         vertex 4.419701e+000 2.000000e+000 4.101483e+000
         vertex 4.574193e+000 2.000000e+000 3.895609e+000
      endloop
   endfacet
   facet normal 0.000000e+000 1.000000e+000 0.000000e+000
      outer loop
         vertex 3.381880e+000 2.000000e+000 4.839292e+000
         vertex 3.617734e+000 2.000000e+000 4.736217e+000
         vertex 2.500000e+000 2.000000e+000 2.500000e+000
      endloop
   endfacet
   facet normal 0.000000e+000 1.000000e+000 0.000000e+000
      outer loop
         vertex 2.500000e+000 2.000000e+000 2.500000e+000
         vertex 3.617734e+000 2.000000e+000 4.736217e+000
         vertex 3.841741e+000 2.000000e+000 4.609438e+000
      endloop
   endfacet
   facet normal 0.000000e+000 1.000000e+000 0.000000e+000
      outer loop
         vertex 2.500000e+000 2.000000e+000 2.500000e+000
         vertex 3.841741e+000 2.000000e+000 4.609438e+000
         vertex 4.051524e+000 2.000000e+000 4.460299e+000
      endloop
   endfacet
   facet normal 0.000000e+000 1.000000e+000 0.000000e+000
      outer loop
         vertex 2.628697e+000 2.000000e+000 4.996686e+000
         vertex 2.884727e+000 2.000000e+000 4.970220e+000
         vertex 2.500000e+000 2.000000e+000 2.500000e+000
      endloop
   endfacet
   facet normal 0.000000e+000 1.000000e+000 0.000000e+000
      outer loop
         vertex 2.500000e+000 2.000000e+000 2.500000e+000
         vertex 2.884727e+000 2.000000e+000 4.970220e+000
         vertex 3.136678e+000 2.000000e+000 4.917570e+000
      endloop
   endfacet
   facet normal 0.000000e+000 1.000000e+000 0.000000e+000
      outer loop
         vertex 2.500000e+000 2.000000e+000 2.500000e+000
         vertex 3.136678e+000 2.000000e+000 4.917570e+000
         vertex 3.381880e+000 2.000000e+000 4.839292e+000
      endloop
   endfacet
   facet normal 0.000000e+000 -1.000000e+000 0.000000e+000
      outer loop
         vertex 2.500000e+000 0.000000e+000 5.000000e+000
         vertex 2.371303e+000 0.000000e+000 4.996686e+000
         vertex 2.500000e+000 0.000000e+000 2.500000e+000
      endloop
   endfacet
   facet normal 0.000000e+000 -1.000000e+000 0.000000e+000
      outer loop
         vertex 2.500000e+000 0.000000e+000 5.000000e+000
         vertex 2.500000e+000 0.000000e+000 2.500000e+000
         vertex 2.628697e+000 0.000000e+000 4.996686e+000
      endloop
   endfacet
   facet normal 0.000000e+000 -1.000000e+000 0.000000e+000
      outer loop
         vertex 3.381880e+000 0.000000e+000 4.839292e+000
         vertex 3.136678e+000 0.000000e+000 4.917570e+000
         vertex 2.500000e+000 0.000000e+000 2.500000e+000
      endloop
   endfacet
   facet normal 0.000000e+000 -1.000000e+000 0.000000e+000
      outer loop
         vertex 2.500000e+000 0.000000e+000 2.500000e+000
         vertex 3.136678e+000 0.000000e+000 4.917570e+000
         vertex 2.884727e+000 0.000000e+000 4.970220e+000
      endloop
   endfacet
   facet normal 0.000000e+000 -1.000000e+000 0.000000e+000
      outer loop
         vertex 2.500000e+000 0.000000e+000 2.500000e+000
         vertex 2.884727e+000 0.000000e+000 4.970220e+000
         vertex 2.628697e+000 0.000000e+000 4.996686e+000
      endloop
   endfacet
   facet normal 0.000000e+000 -1.000000e+000 0.000000e+000
      outer loop
         vertex 4.051524e+000 0.000000e+000 4.460299e+000
         vertex 3.841741e+000 0.000000e+000 4.609438e+000
         vertex 2.500000e+000 0.000000e+000 2.500000e+000
      endloop
   endfacet
   facet normal 0.000000e+000 -1.000000e+000 0.000000e+000
      outer loop
         vertex 2.500000e+000 0.000000e+000 2.500000e+000
         vertex 3.841741e+000 0.000000e+000 4.609438e+000
         vertex 3.617734e+000 0.000000e+000 4.736217e+000
      endloop
   endfacet
   facet normal 0.000000e+000 -1.000000e+000 0.000000e+000
      outer loop
         vertex 2.500000e+000 0.000000e+000 2.500000e+000
         vertex 3.617734e+000 0.000000e+000 4.736217e+000
         vertex 3.381880e+000 0.000000e+000 4.839292e+000
      endloop
   endfacet
   facet normal 0.000000e+000 -1.000000e+000 0.000000e+000
      outer loop
         vertex 4.574193e+000 0.000000e+000 3.895609e+000
         vertex 4.419701e+000 0.000000e+000 4.101483e+000
         vertex 2.500000e+000 0.000000e+000 2.500000e+000
      endloop
   endfacet
   facet normal 0.000000e+000 -1.000000e+000 0.000000e+000
      outer loop
         vertex 2.500000e+000 0.000000e+000 2.500000e+000
         vertex 4.419701e+000 0.000000e+000 4.101483e+000
         vertex 4.244860e+000 0.000000e+000 4.290380e+000
      endloop
   endfacet
   facet normal 0.000000e+000 -1.000000e+000 0.000000e+000
      outer loop
         vertex 2.500000e+000 0.000000e+000 2.500000e+000
         vertex 4.244860e+000 0.000000e+000 4.290380e+000
         vertex 4.051524e+000 0.000000e+000 4.460299e+000
      endloop
   endfacet
   facet normal 0.000000e+000 -1.000000e+000 0.000000e+000
      outer loop
         vertex 4.900374e+000 0.000000e+000 3.198714e+000
         vertex 4.815810e+000 0.000000e+000 3.441820e+000
         vertex 2.500000e+000 0.000000e+000 2.500000e+000
      endloop
   endfacet
   facet normal 0.000000e+000 -1.000000e+000 0.000000e+000
      outer loop
         vertex 2.500000e+000 0.000000e+000 2.500000e+000
         vertex 4.815810e+000 0.000000e+000 3.441820e+000
         vertex 4.706697e+000 0.000000e+000 3.674942e+000
      endloop
   endfacet
   facet normal 0.000000e+000 -1.000000e+000 0.000000e+000
      outer loop
         vertex 2.500000e+000 0.000000e+000 2.500000e+000
         vertex 4.706697e+000 0.000000e+000 3.674942e+000
         vertex 4.574193e+000 0.000000e+000 3.895609e+000
      endloop
   endfacet
   facet normal 0.000000e+000 -1.000000e+000 0.000000e+000
      outer loop
         vertex 4.999171e+000 0.000000e+000 2.435630e+000
         vertex 4.992544e+000 0.000000e+000 2.692939e+000
         vertex 2.500000e+000 0.000000e+000 2.500000e+000
      endloop
   endfacet
   facet normal 0.000000e+000 -1.000000e+000 0.000000e+000
      outer loop
         vertex 2.500000e+000 0.000000e+000 2.500000e+000
         vertex 4.992544e+000 0.000000e+000 2.692939e+000
         vertex 4.959495e+000 0.000000e+000 2.948202e+000
      endloop
   endfacet
   facet normal 0.000000e+000 -1.000000e+000 0.000000e+000
      outer loop
         vertex 2.500000e+000 0.000000e+000 2.500000e+000
         vertex 4.959495e+000 0.000000e+000 2.948202e+000
         vertex 4.900374e+000 0.000000e+000 3.198714e+000
      endloop
   endfacet
   facet normal 0.000000e+000 -1.000000e+000 0.000000e+000
      outer loop
         vertex 4.861223e+000 0.000000e+000 1.678644e+000
         vertex 4.933161e+000 0.000000e+000 1.925781e+000
         vertex 2.500000e+000 0.000000e+000 2.500000e+000
      endloop
   endfacet
   facet normal 0.000000e+000 -1.000000e+000 0.000000e+000
      outer loop
         vertex 2.500000e+000 0.000000e+000 2.500000e+000
         vertex 4.933161e+000 0.000000e+000 1.925781e+000
         vertex 4.979307e+000 0.000000e+000 2.179004e+000
      endloop
   endfacet
   facet normal 0.000000e+000 -1.000000e+000 0.000000e+000
      outer loop
         vertex 2.500000e+000 0.000000e+000 2.500000e+000
         vertex 4.979307e+000 0.000000e+000 2.179004e+000
         vertex 4.999171e+000 0.000000e+000 2.435630e+000
      endloop
   endfacet
   facet normal 0.000000e+000 -1.000000e+000 0.000000e+000
      outer loop
         vertex 4.499598e+000 0.000000e+000 9.994642e-001
         vertex 4.643287e+000 0.000000e+000 1.213018e+000
         vertex 2.500000e+000 0.000000e+000 2.500000e+000
      endloop
   endfacet
   facet normal 0.000000e+000 -1.000000e+000 0.000000e+000
      outer loop
         vertex 2.500000e+000 0.000000e+000 2.500000e+000
         vertex 4.643287e+000 0.000000e+000 1.213018e+000
         vertex 4.764256e+000 0.000000e+000 1.440214e+000
      endloop
   endfacet
   facet normal 0.000000e+000 -1.000000e+000 0.000000e+000
      outer loop
         vertex 2.500000e+000 0.000000e+000 2.500000e+000
         vertex 4.764256e+000 0.000000e+000 1.440214e+000
         vertex 4.861223e+000 0.000000e+000 1.678644e+000
      endloop
   endfacet
   facet normal 0.000000e+000 -1.000000e+000 0.000000e+000
      outer loop
         vertex 3.948553e+000 0.000000e+000 4.624291e-001
         vertex 4.150381e+000 0.000000e+000 6.221702e-001
         vertex 2.500000e+000 0.000000e+000 2.500000e+000
      endloop
   endfacet
   facet normal 0.000000e+000 -1.000000e+000 0.000000e+000
      outer loop
         vertex 2.500000e+000 0.000000e+000 2.500000e+000
         vertex 4.150381e+000 0.000000e+000 6.221702e-001
         vertex 4.334713e+000 0.000000e+000 8.018166e-001
      endloop
   endfacet
   facet normal 0.000000e+000 -1.000000e+000 0.000000e+000
      outer loop
         vertex 2.500000e+000 0.000000e+000 2.500000e+000
         vertex 4.334713e+000 0.000000e+000 8.018166e-001
         vertex 4.499598e+000 0.000000e+000 9.994642e-001
      endloop
   endfacet
   facet normal 0.000000e+000 -1.000000e+000 0.000000e+000
      outer loop
         vertex 3.260287e+000 0.000000e+000 1.184114e-001
         vertex 3.501135e+000 0.000000e+000 2.092077e-001
         vertex 2.500000e+000 0.000000e+000 2.500000e+000
      endloop
   endfacet
   facet normal 0.000000e+000 -1.000000e+000 0.000000e+000
      outer loop
         vertex 2.500000e+000 0.000000e+000 2.500000e+000
         vertex 3.501135e+000 0.000000e+000 2.092077e-001
         vertex 3.731370e+000 0.000000e+000 3.242868e-001
      endloop
   endfacet
   facet normal 0.000000e+000 -1.000000e+000 0.000000e+000
      outer loop
         vertex 2.500000e+000 0.000000e+000 2.500000e+000
         vertex 3.731370e+000 0.000000e+000 3.242868e-001
         vertex 3.948553e+000 0.000000e+000 4.624291e-001
      endloop
   endfacet
   facet normal 0.000000e+000 -1.000000e+000 0.000000e+000
      outer loop
         vertex 2.500000e+000 0.000000e+000 0.000000e+000
         vertex 2.757052e+000 0.000000e+000 1.325016e-002
         vertex 2.500000e+000 0.000000e+000 2.500000e+000
      endloop
   endfacet
   facet normal 0.000000e+000 -1.000000e+000 0.000000e+000
      outer loop
         vertex 2.500000e+000 0.000000e+000 2.500000e+000
         vertex 2.757052e+000 0.000000e+000 1.325016e-002
         vertex 3.011380e+000 0.000000e+000 5.286071e-002
      endloop
   endfacet
   facet normal 0.000000e+000 -1.000000e+000 0.000000e+000
      outer loop
         vertex 2.500000e+000 0.000000e+000 2.500000e+000
         vertex 3.011380e+000 0.000000e+000 5.286071e-002
         vertex 3.260287e+000 0.000000e+000 1.184114e-001
      endloop
   endfacet
   facet normal 0.000000e+000 -1.000000e+000 0.000000e+000
      outer loop
         vertex 1.739713e+000 0.000000e+000 1.184114e-001
         vertex 1.988620e+000 0.000000e+000 5.286071e-002
         vertex 2.500000e+000 0.000000e+000 2.500000e+000
      endloop
   endfacet
   facet normal 0.000000e+000 -1.000000e+000 0.000000e+000
      outer loop
         vertex 2.500000e+000 0.000000e+000 2.500000e+000
         vertex 1.988620e+000 0.000000e+000 5.286071e-002
         vertex 2.242948e+000 0.000000e+000 1.325016e-002
      endloop
   endfacet
   facet normal 0.000000e+000 -1.000000e+000 0.000000e+000
      outer loop
         vertex 2.500000e+000 0.000000e+000 2.500000e+000
         vertex 2.242948e+000 0.000000e+000 1.325016e-002
         vertex 2.500000e+000 0.000000e+000 0.000000e+000
      endloop
   endfacet
   facet normal 0.000000e+000 -1.000000e+000 0.000000e+000
      outer loop
         vertex 1.051447e+000 0.000000e+000 4.624291e-001
         vertex 1.268630e+000 0.000000e+000 3.242868e-001
         vertex 2.500000e+000 0.000000e+000 2.500000e+000
      endloop
   endfacet
   facet normal 0.000000e+000 -1.000000e+000 0.000000e+000
      outer loop
         vertex 2.500000e+000 0.000000e+000 2.500000e+000
         vertex 1.268630e+000 0.000000e+000 3.242868e-001
         vertex 1.498865e+000 0.000000e+000 2.092077e-001
      endloop
   endfacet
   facet normal 0.000000e+000 -1.000000e+000 0.000000e+000
      outer loop
         vertex 2.500000e+000 0.000000e+000 2.500000e+000
         vertex 1.498865e+000 0.000000e+000 2.092077e-001
         vertex 1.739713e+000 0.000000e+000 1.184114e-001
      endloop
   endfacet
   facet normal 0.000000e+000 -1.000000e+000 0.000000e+000
      outer loop
         vertex 5.004020e-001 0.000000e+000 9.994642e-001
         vertex 6.652865e-001 0.000000e+000 8.018166e-001
         vertex 2.500000e+000 0.000000e+000 2.500000e+000
      endloop
   endfacet
   facet normal 0.000000e+000 -1.000000e+000 0.000000e+000
      outer loop
         vertex 2.500000e+000 0.000000e+000 2.500000e+000
         vertex 6.652865e-001 0.000000e+000 8.018166e-001
         vertex 8.496196e-001 0.000000e+000 6.221702e-001
      endloop
   endfacet
   facet normal 0.000000e+000 -1.000000e+000 0.000000e+000
      outer loop
         vertex 2.500000e+000 0.000000e+000 2.500000e+000
         vertex 8.496196e-001 0.000000e+000 6.221702e-001
         vertex 1.051447e+000 0.000000e+000 4.624291e-001
      endloop
   endfacet
   facet normal 0.000000e+000 -1.000000e+000 0.000000e+000
      outer loop
         vertex 1.387768e-001 0.000000e+000 1.678644e+000
         vertex 2.357443e-001 0.000000e+000 1.440214e+000
         vertex 2.500000e+000 0.000000e+000 2.500000e+000
      endloop
   endfacet
   facet normal 0.000000e+000 -1.000000e+000 0.000000e+000
      outer loop
         vertex 2.500000e+000 0.000000e+000 2.500000e+000
         vertex 2.357443e-001 0.000000e+000 1.440214e+000
         vertex 3.567133e-001 0.000000e+000 1.213018e+000
      endloop
   endfacet
   facet normal 0.000000e+000 -1.000000e+000 0.000000e+000
      outer loop
         vertex 2.500000e+000 0.000000e+000 2.500000e+000
         vertex 3.567133e-001 0.000000e+000 1.213018e+000
         vertex 5.004020e-001 0.000000e+000 9.994642e-001
      endloop
   endfacet
   facet normal 0.000000e+000 -1.000000e+000 0.000000e+000
      outer loop
         vertex 8.288771e-004 0.000000e+000 2.435630e+000
         vertex 2.069329e-002 0.000000e+000 2.179004e+000
         vertex 2.500000e+000 0.000000e+000 2.500000e+000
      endloop
   endfacet
   facet normal 0.000000e+000 -1.000000e+000 0.000000e+000
      outer loop
         vertex 2.500000e+000 0.000000e+000 2.500000e+000
         vertex 2.069329e-002 0.000000e+000 2.179004e+000
         vertex 6.683893e-002 0.000000e+000 1.925781e+000
      endloop
   endfacet
   facet normal 0.000000e+000 -1.000000e+000 0.000000e+000
      outer loop
         vertex 2.500000e+000 0.000000e+000 2.500000e+000
         vertex 6.683893e-002 0.000000e+000 1.925781e+000
         vertex 1.387768e-001 0.000000e+000 1.678644e+000
      endloop
   endfacet
   facet normal 0.000000e+000 -1.000000e+000 0.000000e+000
      outer loop
         vertex 9.962521e-002 0.000000e+000 3.198714e+000
         vertex 4.050508e-002 0.000000e+000 2.948202e+000
         vertex 2.500000e+000 0.000000e+000 2.500000e+000
      endloop
   endfacet
   facet normal 0.000000e+000 -1.000000e+000 0.000000e+000
      outer loop
         vertex 2.500000e+000 0.000000e+000 2.500000e+000
         vertex 4.050508e-002 0.000000e+000 2.948202e+000
         vertex 7.456169e-003 0.000000e+000 2.692939e+000
      endloop
   endfacet
   facet normal 0.000000e+000 -1.000000e+000 0.000000e+000
      outer loop
         vertex 2.500000e+000 0.000000e+000 2.500000e+000
         vertex 7.456169e-003 0.000000e+000 2.692939e+000
         vertex 8.288771e-004 0.000000e+000 2.435630e+000
      endloop
   endfacet
   facet normal 0.000000e+000 -1.000000e+000 0.000000e+000
      outer loop
         vertex 4.258074e-001 0.000000e+000 3.895609e+000
         vertex 2.933030e-001 0.000000e+000 3.674942e+000
         vertex 2.500000e+000 0.000000e+000 2.500000e+000
      endloop
   endfacet
   facet normal 0.000000e+000 -1.000000e+000 0.000000e+000
      outer loop
         vertex 2.500000e+000 0.000000e+000 2.500000e+000
         vertex 2.933030e-001 0.000000e+000 3.674942e+000
         vertex 1.841900e-001 0.000000e+000 3.441820e+000
      endloop
   endfacet
   facet normal 0.000000e+000 -1.000000e+000 0.000000e+000
      outer loop
         vertex 2.500000e+000 0.000000e+000 2.500000e+000
         vertex 1.841900e-001 0.000000e+000 3.441820e+000
         vertex 9.962521e-002 0.000000e+000 3.198714e+000
      endloop
   endfacet
   facet normal 0.000000e+000 -1.000000e+000 0.000000e+000
      outer loop
         vertex 9.484763e-001 0.000000e+000 4.460299e+000
         vertex 7.551395e-001 0.000000e+000 4.290380e+000
         vertex 2.500000e+000 0.000000e+000 2.500000e+000
      endloop
   endfacet
   facet normal 0.000000e+000 -1.000000e+000 0.000000e+000
      outer loop
         vertex 2.500000e+000 0.000000e+000 2.500000e+000
         vertex 7.551395e-001 0.000000e+000 4.290380e+000
         vertex 5.802988e-001 0.000000e+000 4.101483e+000
      endloop
   endfacet
   facet normal 0.000000e+000 -1.000000e+000 0.000000e+000
      outer loop
         vertex 2.500000e+000 0.000000e+000 2.500000e+000
         vertex 5.802988e-001 0.000000e+000 4.101483e+000
         vertex 4.258074e-001 0.000000e+000 3.895609e+000
      endloop
   endfacet
   facet normal 0.000000e+000 -1.000000e+000 0.000000e+000
      outer loop
         vertex 1.618120e+000 0.000000e+000 4.839292e+000
         vertex 1.382265e+000 0.000000e+000 4.736217e+000
         vertex 2.500000e+000 0.000000e+000 2.500000e+000
      endloop
   endfacet
   facet normal 0.000000e+000 -1.000000e+000 0.000000e+000
      outer loop
         vertex 2.500000e+000 0.000000e+000 2.500000e+000
         vertex 1.382265e+000 0.000000e+000 4.736217e+000
         vertex 1.158260e+000 0.000000e+000 4.609438e+000
      endloop
   endfacet
   facet normal 0.000000e+000 -1.000000e+000 0.000000e+000
      outer loop
         vertex 2.500000e+000 0.000000e+000 2.500000e+000
         vertex 1.158260e+000 0.000000e+000 4.609438e+000
         vertex 9.484763e-001 0.000000e+000 4.460299e+000
      endloop
   endfacet
   facet normal 0.000000e+000 -1.000000e+000 0.000000e+000
      outer loop
         vertex 2.371303e+000 0.000000e+000 4.996686e+000
         vertex 2.115273e+000 0.000000e+000 4.970220e+000
         vertex 2.500000e+000 0.000000e+000 2.500000e+000
      endloop
   endfacet
   facet normal 0.000000e+000 -1.000000e+000 0.000000e+000
      outer loop
         vertex 2.500000e+000 0.000000e+000 2.500000e+000
         vertex 2.115273e+000 0.000000e+000 4.970220e+000
         vertex 1.863322e+000 0.000000e+000 4.917570e+000
      endloop
   endfacet
   facet normal 0.000000e+000 -1.000000e+000 0.000000e+000
      outer loop
         vertex 2.500000e+000 0.000000e+000 2.500000e+000
         vertex 1.863322e+000 0.000000e+000 4.917570e+000
         vertex 1.618120e+000 0.000000e+000 4.839292e+000
      endloop
   endfacet
endsolid